<svg xmlns="http://www.w3.org/2000/svg" width="1536" height="1024" viewBox="0 0 1536 1024" role="img" aria-labelledby="title desc">
  <title id="title">Reliability pattern lab thumbnail</title>
  <desc id="desc">A service containment diagram with timeout, retry, circuit breaker, and bulkhead lanes.</desc>
  <defs>
    <linearGradient id="bg" x1="0" y1="0" x2="1" y2="1">
      <stop offset="0" stop-color="#f8fbfb"/>
      <stop offset="1" stop-color="#eef5f3"/>
    </linearGradient>
    <filter id="shadow" x="-20%" y="-20%" width="140%" height="140%">
      <feDropShadow dx="0" dy="18" stdDeviation="18" flood-color="#20312f" flood-opacity="0.14"/>
    </filter>
  </defs>
  <rect width="1536" height="1024" fill="url(#bg)"/>
  <g opacity="0.35" stroke="#c8d6d3" stroke-width="1">
    <path d="M0 128h1536M0 256h1536M0 384h1536M0 512h1536M0 640h1536M0 768h1536M0 896h1536"/>
    <path d="M128 0v1024M256 0v1024M384 0v1024M512 0v1024M640 0v1024M768 0v1024M896 0v1024M1024 0v1024M1152 0v1024M1280 0v1024M1408 0v1024"/>
  </g>
  <g filter="url(#shadow)">
    <rect x="116" y="316" width="300" height="244" rx="24" fill="#ffffff" stroke="#b8d7d0" stroke-width="3"/>
    <rect x="618" y="176" width="300" height="244" rx="24" fill="#ffffff" stroke="#f1c27a" stroke-width="3"/>
    <rect x="618" y="604" width="300" height="244" rx="24" fill="#ffffff" stroke="#8cc7bd" stroke-width="3"/>
    <rect x="1120" y="316" width="300" height="244" rx="24" fill="#ffffff" stroke="#bcc5d2" stroke-width="3"/>
  </g>
  <g fill="#1f2a2e" font-family="-apple-system,BlinkMacSystemFont,Segoe UI,sans-serif" font-weight="700">
    <text x="186" y="394" font-size="42">Checkout API</text>
    <text x="690" y="254" font-size="40">Payment</text>
    <text x="680" y="682" font-size="40">Recommend</text>
    <text x="1192" y="394" font-size="40">Cache / DB</text>
  </g>
  <g fill="#6b7b80" font-family="-apple-system,BlinkMacSystemFont,Segoe UI,sans-serif" font-size="28">
    <text x="172" y="456">shared request pool</text>
    <text x="670" y="316">latency spike</text>
    <text x="670" y="744">isolated pool</text>
    <text x="1172" y="456">fallback source</text>
  </g>
  <g fill="none" stroke-linecap="round" stroke-linejoin="round">
    <path d="M416 438 C500 360 536 300 618 298" stroke="#d39a27" stroke-width="9"/>
    <path d="M416 484 C508 560 532 704 618 726" stroke="#159c8c" stroke-width="9"/>
    <path d="M918 300 C1008 314 1040 408 1120 436" stroke="#d39a27" stroke-width="9" stroke-dasharray="18 18"/>
    <path d="M918 726 C1002 700 1036 532 1120 484" stroke="#159c8c" stroke-width="9"/>
  </g>
  <g transform="translate(496 450)">
    <rect x="0" y="0" width="544" height="124" rx="24" fill="#1f2a2e"/>
    <circle cx="82" cy="62" r="32" fill="#f1c27a"/>
    <circle cx="210" cy="62" r="32" fill="#5db7a9"/>
    <circle cx="338" cy="62" r="32" fill="#94a3b8"/>
    <circle cx="466" cy="62" r="32" fill="#d65f5f"/>
    <g fill="#ffffff" font-family="-apple-system,BlinkMacSystemFont,Segoe UI,sans-serif" font-size="20" font-weight="700" text-anchor="middle">
      <text x="82" y="70">T</text>
      <text x="210" y="70">R</text>
      <text x="338" y="70">CB</text>
      <text x="466" y="70">BH</text>
    </g>
  </g>
  <g fill="#0f766e" opacity="0.16">
    <circle cx="260" cy="740" r="112"/>
    <circle cx="1260" cy="210" r="136"/>
  </g>
</svg>
